<svg
              width="45"
              height="45"
              viewBox="0 0 45 45"
              fill="none"
              xmlns="http://www.w3.org/2000/svg"
            >
              <path
                d="M30.4117 33.66C30.8533 33.8934 31.4242 33.8681 31.8179 33.5194L31.832 33.5334C33.3378 32.1982 34.8595 30.8809 36.3967 29.5819C36.8833 29.1797 36.7989 28.5356 36.4136 27.9984L36.062 27.5203C35.0917 26.2125 34.1692 24.9722 34.1692 22.4831V13.2019L34.172 12.2597C34.1945 8.70188 34.2114 5.45062 31.5479 2.96438C29.2614 0.770625 25.4814 0 22.5845 0C16.9229 0 10.6033 2.10938 9.27013 9.1125C9.13794 9.855 9.67231 10.2488 10.1589 10.3584L15.9358 10.9772C16.4701 10.9519 16.8639 10.4259 16.9651 9.88875C17.4601 7.47844 19.4851 6.31406 21.7548 6.31406C22.9783 6.31406 24.3676 6.76406 25.0961 7.86094C25.8386 8.95781 25.8273 10.4203 25.8189 11.7309V12.9459C25.2564 13.0078 24.6742 13.0688 24.0723 13.1288C20.942 13.4494 17.3308 13.8206 14.6223 15.0131C10.8929 16.6219 8.26888 19.9125 8.26888 24.7444C8.26888 30.9319 12.1698 34.02 17.1789 34.02C21.4145 34.02 23.7264 33.0244 26.9917 29.6887L27.4614 30.3806C28.232 31.5197 28.7439 32.2791 30.4061 33.66H30.4117ZM16.9595 23.7122C16.9595 18.6384 21.5073 17.7188 25.8104 17.7188V19.3219C25.8133 21.5044 25.8161 23.355 24.6967 25.3209C23.7517 26.9944 22.2498 28.0237 20.5764 28.0237C18.2926 28.0237 16.9595 26.2828 16.9595 23.7122ZM1.22356 34.2394C8.61763 38.7478 20.0617 45.7256 38.3008 37.0434C39.0883 36.7172 39.6367 37.2628 38.8604 38.2556C38.0758 39.2625 31.8151 45 21.2908 45C10.7776 45 2.72263 37.8169 0.264501 34.8356C-0.410499 34.0622 0.365751 33.7106 0.824189 33.9947L1.22356 34.2394Z"
                fill="black"
              />
              <path
                d="M30.4117 33.66C30.8533 33.8934 31.4242 33.8681 31.8179 33.5194L31.832 33.5334C33.3378 32.1982 34.8595 30.8809 36.3967 29.5819C36.8833 29.1797 36.7989 28.5356 36.4136 27.9984L36.062 27.5203C35.0917 26.2125 34.1692 24.9722 34.1692 22.4831V13.2019L34.172 12.2597C34.1945 8.70188 34.2114 5.45062 31.5479 2.96438C29.2614 0.770625 25.4814 0 22.5845 0C16.9229 0 10.6033 2.10938 9.27013 9.1125C9.13794 9.855 9.67231 10.2488 10.1589 10.3584L15.9358 10.9772C16.4701 10.9519 16.8639 10.4259 16.9651 9.88875C17.4601 7.47844 19.4851 6.31406 21.7548 6.31406C22.9783 6.31406 24.3676 6.76406 25.0961 7.86094C25.8386 8.95781 25.8273 10.4203 25.8189 11.7309V12.9459C25.2564 13.0078 24.6742 13.0688 24.0723 13.1288C20.942 13.4494 17.3308 13.8206 14.6223 15.0131C10.8929 16.6219 8.26888 19.9125 8.26888 24.7444C8.26888 30.9319 12.1698 34.02 17.1789 34.02C21.4145 34.02 23.7264 33.0244 26.9917 29.6887L27.4614 30.3806C28.232 31.5197 28.7439 32.2791 30.4061 33.66H30.4117ZM16.9595 23.7122C16.9595 18.6384 21.5073 17.7188 25.8104 17.7188V19.3219C25.8133 21.5044 25.8161 23.355 24.6967 25.3209C23.7517 26.9944 22.2498 28.0237 20.5764 28.0237C18.2926 28.0237 16.9595 26.2828 16.9595 23.7122ZM1.22356 34.2394C8.61763 38.7478 20.0617 45.7256 38.3008 37.0434C39.0883 36.7172 39.6367 37.2628 38.8604 38.2556C38.0758 39.2625 31.8151 45 21.2908 45C10.7776 45 2.72263 37.8169 0.264501 34.8356C-0.410499 34.0622 0.365751 33.7106 0.824189 33.9947L1.22356 34.2394Z"
                fill="url(#paint0_radial_14034_8018)"
              />
              <path
                d="M38.8913 33.5897C40.486 33.3928 43.02 33.5137 43.5178 34.1634C43.8975 34.6584 43.5066 36.8803 42.8625 38.475C42.2156 40.0584 41.2538 41.1778 40.7194 41.6109C40.185 42.044 39.7828 41.8753 40.0725 41.2256C40.3678 40.5787 41.9963 36.5484 41.3522 35.7047C40.7531 34.9228 38.0419 35.2069 36.7819 35.339L36.5288 35.3644C36.2625 35.3887 36.0441 35.4112 35.8735 35.4319C35.3306 35.4909 35.1844 35.5078 35.1028 35.3419C34.8947 34.754 37.2938 33.7781 38.8913 33.5897Z"
                fill="black"
              />
              <path
                d="M38.8913 33.5897C40.486 33.3928 43.02 33.5137 43.5178 34.1634C43.8975 34.6584 43.5066 36.8803 42.8625 38.475C42.2156 40.0584 41.2538 41.1778 40.7194 41.6109C40.185 42.044 39.7828 41.8753 40.0725 41.2256C40.3678 40.5787 41.9963 36.5484 41.3522 35.7047C40.7531 34.9228 38.0419 35.2069 36.7819 35.339L36.5288 35.3644C36.2625 35.3887 36.0441 35.4112 35.8735 35.4319C35.3306 35.4909 35.1844 35.5078 35.1028 35.3419C34.8947 34.754 37.2938 33.7781 38.8913 33.5897Z"
                fill="url(#paint1_radial_14034_8018)"
              />
              <defs>
                <radialGradient
                  id="paint0_radial_14034_8018"
                  cx="0"
                  cy="0"
                  r="1"
                  gradientUnits="userSpaceOnUse"
                  gradientTransform="translate(19.6177 22.5) rotate(89.7678) scale(24.5166 21.3759)"
                >
                  <stop stop-color="#C7D7FF" />
                  <stop offset="1" stop-color="#788199" />
                </radialGradient>
                <radialGradient
                  id="paint1_radial_14034_8018"
                  cx="0"
                  cy="0"
                  r="1"
                  gradientUnits="userSpaceOnUse"
                  gradientTransform="translate(39.3786 37.6772) rotate(89.7264) scale(4.54757 4.67276)"
                >
                  <stop stop-color="#C7D7FF" />
                  <stop offset="1" stop-color="#788199" />
                </radialGradient>
              </defs>
            </svg>