<svg
              width="46"
              height="41"
              viewBox="0 0 46 41"
              fill="none"
              xmlns="http://www.w3.org/2000/svg"
            >
              <path
                d="M7.66797 40.9938C5.67884 40.9938 3.77119 40.2036 2.36467 38.7971C0.958145 37.3905 0.167969 35.4829 0.167969 33.4938C0.167969 31.5046 0.958145 29.597 2.36467 28.1905C3.77119 26.7839 5.67884 25.9938 7.66797 25.9938C9.65709 25.9938 11.5647 26.7839 12.9713 28.1905C14.3778 29.597 15.168 31.5046 15.168 33.4938C15.168 35.4829 14.3778 37.3905 12.9713 38.7971C11.5647 40.2036 9.65709 40.9938 7.66797 40.9938ZM44.163 29.7419L29.163 3.76002C28.1684 2.03694 26.5301 0.779527 24.6084 0.264388C22.6868 -0.250751 20.6392 0.018586 18.9161 1.01315C17.193 2.00771 15.9356 3.64603 15.4205 5.56769C14.9053 7.48935 15.1747 9.53694 16.1692 11.26L31.1711 37.2419C32.1768 38.9427 33.813 40.1781 35.7242 40.6796C37.6354 41.1812 39.6674 40.9085 41.3787 39.9207C43.09 38.9329 44.3425 37.3099 44.8642 35.404C45.3858 33.4982 45.1327 31.4635 44.163 29.7419ZM14.2567 7.08252L3.10047 26.4025C4.46214 25.5246 6.04779 25.0572 7.66797 25.0563C12.468 25.0413 16.3398 29.1025 16.0942 33.8969L22.1261 23.4475L15.3573 11.7288C14.5467 10.3199 14.1642 8.70532 14.2567 7.08252Z"
                fill="black"
              />
              <path
                d="M7.66797 40.9938C5.67884 40.9938 3.77119 40.2036 2.36467 38.7971C0.958145 37.3905 0.167969 35.4829 0.167969 33.4938C0.167969 31.5046 0.958145 29.597 2.36467 28.1905C3.77119 26.7839 5.67884 25.9938 7.66797 25.9938C9.65709 25.9938 11.5647 26.7839 12.9713 28.1905C14.3778 29.597 15.168 31.5046 15.168 33.4938C15.168 35.4829 14.3778 37.3905 12.9713 38.7971C11.5647 40.2036 9.65709 40.9938 7.66797 40.9938ZM44.163 29.7419L29.163 3.76002C28.1684 2.03694 26.5301 0.779527 24.6084 0.264388C22.6868 -0.250751 20.6392 0.018586 18.9161 1.01315C17.193 2.00771 15.9356 3.64603 15.4205 5.56769C14.9053 7.48935 15.1747 9.53694 16.1692 11.26L31.1711 37.2419C32.1768 38.9427 33.813 40.1781 35.7242 40.6796C37.6354 41.1812 39.6674 40.9085 41.3787 39.9207C43.09 38.9329 44.3425 37.3099 44.8642 35.404C45.3858 33.4982 45.1327 31.4635 44.163 29.7419ZM14.2567 7.08252L3.10047 26.4025C4.46214 25.5246 6.04779 25.0572 7.66797 25.0563C12.468 25.0413 16.3398 29.1025 16.0942 33.8969L22.1261 23.4475L15.3573 11.7288C14.5467 10.3199 14.1642 8.70532 14.2567 7.08252Z"
                fill="url(#paint0_radial_14034_7610)"
              />
              <defs>
                <radialGradient
                  id="paint0_radial_14034_7610"
                  cx="0"
                  cy="0"
                  r="1"
                  gradientUnits="userSpaceOnUse"
                  gradientTransform="translate(22.6492 20.5012) rotate(89.7079) scale(22.3294 24.4958)"
                >
                  <stop stop-color="#C7D7FF" />
                  <stop offset="1" stop-color="#788199" />
                </radialGradient>
              </defs>
            </svg>