<svg
              width="46"
              height="46"
              viewBox="0 0 46 46"
              fill="none"
              xmlns="http://www.w3.org/2000/svg"
            >
              <path
                d="M40.6685 0.5C41.9945 0.5 43.2663 1.02678 44.204 1.96447C45.1417 2.90215 45.6685 4.17392 45.6685 5.5V40.5C45.6685 41.8261 45.1417 43.0979 44.204 44.0355C43.2663 44.9732 41.9945 45.5 40.6685 45.5H5.66846C4.34237 45.5 3.0706 44.9732 2.13292 44.0355C1.19524 43.0979 0.668457 41.8261 0.668457 40.5V5.5C0.668457 4.17392 1.19524 2.90215 2.13292 1.96447C3.0706 1.02678 4.34237 0.5 5.66846 0.5H40.6685ZM39.4185 39.25V26C39.4185 23.8385 38.5598 21.7655 37.0314 20.2371C35.503 18.7087 33.43 17.85 31.2685 17.85C29.1435 17.85 26.6685 19.15 25.4685 21.1V18.325H18.4935V39.25H25.4685V26.925C25.4685 25 27.0185 23.425 28.9435 23.425C29.8717 23.425 30.762 23.7937 31.4183 24.4501C32.0747 25.1065 32.4435 25.9967 32.4435 26.925V39.25H39.4185ZM10.3685 14.4C11.4824 14.4 12.5507 13.9575 13.3383 13.1698C14.126 12.3822 14.5685 11.3139 14.5685 10.2C14.5685 7.875 12.6935 5.975 10.3685 5.975C9.24792 5.975 8.17327 6.42013 7.38093 7.21247C6.58859 8.00482 6.14346 9.07946 6.14346 10.2C6.14346 12.525 8.04346 14.4 10.3685 14.4ZM13.8435 39.25V18.325H6.91846V39.25H13.8435Z"
                fill="black"
              />
              <path
                d="M40.6685 0.5C41.9945 0.5 43.2663 1.02678 44.204 1.96447C45.1417 2.90215 45.6685 4.17392 45.6685 5.5V40.5C45.6685 41.8261 45.1417 43.0979 44.204 44.0355C43.2663 44.9732 41.9945 45.5 40.6685 45.5H5.66846C4.34237 45.5 3.0706 44.9732 2.13292 44.0355C1.19524 43.0979 0.668457 41.8261 0.668457 40.5V5.5C0.668457 4.17392 1.19524 2.90215 2.13292 1.96447C3.0706 1.02678 4.34237 0.5 5.66846 0.5H40.6685ZM39.4185 39.25V26C39.4185 23.8385 38.5598 21.7655 37.0314 20.2371C35.503 18.7087 33.43 17.85 31.2685 17.85C29.1435 17.85 26.6685 19.15 25.4685 21.1V18.325H18.4935V39.25H25.4685V26.925C25.4685 25 27.0185 23.425 28.9435 23.425C29.8717 23.425 30.762 23.7937 31.4183 24.4501C32.0747 25.1065 32.4435 25.9967 32.4435 26.925V39.25H39.4185ZM10.3685 14.4C11.4824 14.4 12.5507 13.9575 13.3383 13.1698C14.126 12.3822 14.5685 11.3139 14.5685 10.2C14.5685 7.875 12.6935 5.975 10.3685 5.975C9.24792 5.975 8.17327 6.42013 7.38093 7.21247C6.58859 8.00482 6.14346 9.07946 6.14346 10.2C6.14346 12.525 8.04346 14.4 10.3685 14.4ZM13.8435 39.25V18.325H6.91846V39.25H13.8435Z"
                fill="url(#paint0_radial_14034_7752)"
              />
              <defs>
                <radialGradient
                  id="paint0_radial_14034_7752"
                  cx="0"
                  cy="0"
                  r="1"
                  gradientUnits="userSpaceOnUse"
                  gradientTransform="translate(23.1685 23) rotate(89.7337) scale(24.5167 24.5164)"
                >
                  <stop stop-color="#C7D7FF" />
                  <stop offset="1" stop-color="#788199" />
                </radialGradient>
              </defs>
            </svg>