<svg
              width="53"
              height="35"
              viewBox="0 0 53 35"
              fill="none"
              xmlns="http://www.w3.org/2000/svg"
            >
              <path
                d="M37.9435 0.3125C33.7016 0.3125 30.3855 3.50708 27.3835 7.56563C23.2585 2.31312 19.8095 0.3125 15.6822 0.3125C7.2672 0.3125 0.818451 11.2667 0.818451 22.8579C0.818451 30.111 4.32699 34.6875 10.2051 34.6875C14.4355 34.6875 17.4789 32.6938 22.8895 23.236C22.8895 23.236 25.1445 19.2554 26.6937 16.5123C27.2375 17.3892 27.8105 18.3349 28.4124 19.3494L30.9493 23.6165C35.8901 31.8848 38.6447 34.6875 43.6314 34.6875C49.3605 34.6875 52.546 30.0492 52.546 22.6448C52.546 10.5058 45.9528 0.3125 37.9435 0.3125ZM18.7622 20.6763C14.3782 27.5513 12.8612 29.0935 10.4205 29.0935C7.90658 29.0935 6.41241 26.8867 6.41241 22.9519C6.41241 14.5369 10.6085 5.93167 15.6112 5.93167C18.3199 5.93167 20.5841 7.49458 24.0514 12.4583C20.7582 17.5092 18.7622 20.6763 18.7622 20.6763ZM35.3195 19.8123L32.283 14.75C31.5209 13.5051 30.7324 12.2765 29.918 11.065C32.652 6.84604 34.9047 4.74229 37.5882 4.74229C43.157 4.74229 47.6143 12.9465 47.6143 23.0206C47.6143 26.8615 46.3562 29.0913 43.7505 29.0913C41.2526 29.0913 40.061 27.4413 35.3172 19.81"
                fill="black"
              />
              <path
                d="M37.9435 0.3125C33.7016 0.3125 30.3855 3.50708 27.3835 7.56563C23.2585 2.31312 19.8095 0.3125 15.6822 0.3125C7.2672 0.3125 0.818451 11.2667 0.818451 22.8579C0.818451 30.111 4.32699 34.6875 10.2051 34.6875C14.4355 34.6875 17.4789 32.6938 22.8895 23.236C22.8895 23.236 25.1445 19.2554 26.6937 16.5123C27.2375 17.3892 27.8105 18.3349 28.4124 19.3494L30.9493 23.6165C35.8901 31.8848 38.6447 34.6875 43.6314 34.6875C49.3605 34.6875 52.546 30.0492 52.546 22.6448C52.546 10.5058 45.9528 0.3125 37.9435 0.3125ZM18.7622 20.6763C14.3782 27.5513 12.8612 29.0935 10.4205 29.0935C7.90658 29.0935 6.41241 26.8867 6.41241 22.9519C6.41241 14.5369 10.6085 5.93167 15.6112 5.93167C18.3199 5.93167 20.5841 7.49458 24.0514 12.4583C20.7582 17.5092 18.7622 20.6763 18.7622 20.6763ZM35.3195 19.8123L32.283 14.75C31.5209 13.5051 30.7324 12.2765 29.918 11.065C32.652 6.84604 34.9047 4.74229 37.5882 4.74229C43.157 4.74229 47.6143 12.9465 47.6143 23.0206C47.6143 26.8615 46.3562 29.0913 43.7505 29.0913C41.2526 29.0913 40.061 27.4413 35.3172 19.81"
                fill="url(#paint0_radial_14034_8031)"
              />
              <defs>
                <radialGradient
                  id="paint0_radial_14034_8031"
                  cx="0"
                  cy="0"
                  r="1"
                  gradientUnits="userSpaceOnUse"
                  gradientTransform="translate(26.6822 17.5) rotate(89.5993) scale(18.7283 28.1812)"
                >
                  <stop stop-color="#C7D7FF" />
                  <stop offset="1" stop-color="#788199" />
                </radialGradient>
              </defs>
            </svg>