<svg
              width="40"
              height="46"
              viewBox="0 0 40 46"
              fill="none"
              xmlns="http://www.w3.org/2000/svg"
            >
              <path
                d="M31.668 7.55C29.9594 5.59882 29.0177 3.0935 29.018 0.5H21.293V31.5C21.2346 33.178 20.5268 34.7677 19.3187 35.9337C18.1107 37.0998 16.497 37.751 14.818 37.75C11.268 37.75 8.31796 34.85 8.31796 31.25C8.31796 26.95 12.468 23.725 16.743 25.05V17.15C8.11796 16 0.567963 22.7 0.567963 31.25C0.567963 39.575 7.46796 45.5 14.793 45.5C22.643 45.5 29.018 39.125 29.018 31.25V15.525C32.1505 17.7746 35.9114 18.9816 39.768 18.975V11.25C39.768 11.25 35.068 11.475 31.668 7.55Z"
                fill="url(#paint0_radial_14034_7738)"
              />
              <defs>
                <radialGradient
                  id="paint0_radial_14034_7738"
                  cx="0"
                  cy="0"
                  r="1"
                  gradientUnits="userSpaceOnUse"
                  gradientTransform="translate(20.168 23) rotate(89.768) scale(24.5166 21.3565)"
                >
                  <stop stop-color="#C7D7FF" />
                  <stop offset="1" stop-color="#788199" />
                </radialGradient>
              </defs>
            </svg>