<svg width="50" height="39" viewBox="0 0 50 39" fill="none" xmlns="http://www.w3.org/2000/svg">
<path d="M40 20.0001C40 21.3751 41.125 22.5001 42.5 22.5001H47.5C48.875 22.5001 50 21.3751 50 20.0001C50 18.6251 48.875 17.5001 47.5 17.5001H42.5C41.125 17.5001 40 18.6251 40 20.0001ZM36.475 32.0501C36.2787 32.3061 36.1357 32.599 36.0545 32.9112C35.9733 33.2235 35.9554 33.5488 36.002 33.8681C36.0486 34.1874 36.1587 34.4941 36.3259 34.7701C36.493 35.0461 36.7137 35.2858 36.975 35.4751C38.3 36.4501 39.7 37.5001 41.025 38.5001C42.125 39.3251 43.675 39.1001 44.475 38.0001C44.475 37.9751 44.5 37.9751 44.5 37.9501C44.6956 37.6915 44.838 37.3966 44.9188 37.0825C44.9996 36.7685 45.0172 36.4415 44.9707 36.1206C44.9242 35.7997 44.8145 35.4912 44.6478 35.213C44.4812 34.9348 44.261 34.6925 44 34.5001C42.675 33.5001 41.275 32.4501 39.975 31.4751C39.7125 31.281 39.4143 31.1407 39.0974 31.0621C38.7806 30.9834 38.4514 30.9681 38.1286 31.0168C37.8058 31.0656 37.4958 31.1775 37.2164 31.3462C36.9369 31.515 36.6935 31.7371 36.5 32.0001C36.5 32.0251 36.475 32.0501 36.475 32.0501ZM44.525 2.02507C44.525 2.00007 44.5 2.00007 44.5 1.97507C44.3076 1.71407 44.0652 1.49387 43.787 1.32724C43.5089 1.1606 43.2004 1.05085 42.8795 1.00434C42.5585 0.957825 42.2316 0.975486 41.9175 1.05629C41.6035 1.1371 41.3086 1.27944 41.05 1.47507C39.725 2.47507 38.3 3.52507 37 4.52507C35.9 5.35007 35.7 6.90007 36.525 7.97507C36.525 8.00007 36.55 8.00007 36.55 8.02507C37.375 9.12507 38.9 9.35007 40 8.52507C41.325 7.55007 42.725 6.47507 44.05 5.47507C45.125 4.67507 45.325 3.12507 44.525 2.02507ZM15 12.5001H5C2.25 12.5001 0 14.7501 0 17.5001V22.5001C0 25.2501 2.25 27.5001 5 27.5001H7.5V35.0001C7.5 36.3751 8.625 37.5001 10 37.5001C11.375 37.5001 12.5 36.3751 12.5 35.0001V27.5001H15L27.5 35.0001V5.00007L15 12.5001ZM33.75 20.0001C33.75 16.6751 32.3 13.6751 30 11.6251V28.3501C32.3 26.3251 33.75 23.3251 33.75 20.0001Z" fill="black"/>
<path d="M40 20.0001C40 21.3751 41.125 22.5001 42.5 22.5001H47.5C48.875 22.5001 50 21.3751 50 20.0001C50 18.6251 48.875 17.5001 47.5 17.5001H42.5C41.125 17.5001 40 18.6251 40 20.0001ZM36.475 32.0501C36.2787 32.3061 36.1357 32.599 36.0545 32.9112C35.9733 33.2235 35.9554 33.5488 36.002 33.8681C36.0486 34.1874 36.1587 34.4941 36.3259 34.7701C36.493 35.0461 36.7137 35.2858 36.975 35.4751C38.3 36.4501 39.7 37.5001 41.025 38.5001C42.125 39.3251 43.675 39.1001 44.475 38.0001C44.475 37.9751 44.5 37.9751 44.5 37.9501C44.6956 37.6915 44.838 37.3966 44.9188 37.0825C44.9996 36.7685 45.0172 36.4415 44.9707 36.1206C44.9242 35.7997 44.8145 35.4912 44.6478 35.213C44.4812 34.9348 44.261 34.6925 44 34.5001C42.675 33.5001 41.275 32.4501 39.975 31.4751C39.7125 31.281 39.4143 31.1407 39.0974 31.0621C38.7806 30.9834 38.4514 30.9681 38.1286 31.0168C37.8058 31.0656 37.4958 31.1775 37.2164 31.3462C36.9369 31.515 36.6935 31.7371 36.5 32.0001C36.5 32.0251 36.475 32.0501 36.475 32.0501ZM44.525 2.02507C44.525 2.00007 44.5 2.00007 44.5 1.97507C44.3076 1.71407 44.0652 1.49387 43.787 1.32724C43.5089 1.1606 43.2004 1.05085 42.8795 1.00434C42.5585 0.957825 42.2316 0.975486 41.9175 1.05629C41.6035 1.1371 41.3086 1.27944 41.05 1.47507C39.725 2.47507 38.3 3.52507 37 4.52507C35.9 5.35007 35.7 6.90007 36.525 7.97507C36.525 8.00007 36.55 8.00007 36.55 8.02507C37.375 9.12507 38.9 9.35007 40 8.52507C41.325 7.55007 42.725 6.47507 44.05 5.47507C45.125 4.67507 45.325 3.12507 44.525 2.02507ZM15 12.5001H5C2.25 12.5001 0 14.7501 0 17.5001V22.5001C0 25.2501 2.25 27.5001 5 27.5001H7.5V35.0001C7.5 36.3751 8.625 37.5001 10 37.5001C11.375 37.5001 12.5 36.3751 12.5 35.0001V27.5001H15L27.5 35.0001V5.00007L15 12.5001ZM33.75 20.0001C33.75 16.6751 32.3 13.6751 30 11.6251V28.3501C32.3 26.3251 33.75 23.3251 33.75 20.0001Z" fill="url(#paint0_radial_444_19665)"/>
<defs>
<radialGradient id="paint0_radial_444_19665" cx="0" cy="0" r="1" gradientUnits="userSpaceOnUse" gradientTransform="translate(25 19.9882) rotate(89.6498) scale(20.7132 27.2402)">
<stop stop-color="#C7D7FF"/>
<stop offset="1" stop-color="#788199"/>
</radialGradient>
</defs>
</svg>
