<svg width="52" height="54" viewBox="0 0 52 54" fill="none" xmlns="http://www.w3.org/2000/svg">
<path d="M49.8066 28.6113C50.7625 30.4258 51.3514 32.4109 51.5397 34.4531C51.728 36.4953 51.512 38.5546 50.904 40.5133C50.2961 42.472 49.3081 44.2917 47.9965 45.8683C46.685 47.445 45.0756 48.7478 43.2603 49.7021L38.2468 52.3437L37.014 52.9921C35.8814 53.5881 34.627 53.9158 33.3476 53.9501C32.0682 53.9843 30.798 53.7241 29.6352 53.1895L10.0558 44.8247L11.8995 39.3548L23.5436 41.6041L17.5134 30.1455L7.80523 11.6989L12.5346 9.21082L22.2428 27.6628L24.5789 26.4341L20.2991 18.296L25.0258 15.8093L29.3055 23.9474L31.6416 22.7187L28.337 16.4377L33.0664 13.9495L36.3711 20.2305L38.7084 18.9912L36.4403 14.6686L41.1684 12.1873L43.4364 16.5097L49.8054 28.6153L49.8066 28.6113ZM4.58609 14.1884C3.60362 13.205 2.93448 11.9527 2.66315 10.5894C2.39182 9.22608 2.53045 7.81296 3.06155 6.52839C3.59265 5.24381 4.4924 4.14537 5.64724 3.37172C6.80208 2.59806 8.16024 2.18388 9.55027 2.18145C10.6767 2.18271 11.7864 2.45415 12.7862 2.97298C13.7861 3.49181 14.6469 4.24291 15.2964 5.16322C15.9459 6.08354 16.3652 7.14623 16.5191 8.2621C16.673 9.37798 16.5569 10.5145 16.1807 11.5763L17.4215 13.9215C18.2515 12.5302 18.6982 10.9438 18.7163 9.32384C18.7344 7.70384 18.3231 6.10794 17.5244 4.6984C16.7257 3.28887 15.568 2.11596 14.169 1.29894C12.77 0.481923 11.1796 0.0499265 9.55953 0.046875C7.18547 0.0472088 4.90411 0.968463 3.19553 2.61677C1.48696 4.26508 0.4844 6.5119 0.398844 8.88441C0.313289 11.2569 1.1514 13.5701 2.73682 15.3372C4.32223 17.1043 6.53131 18.1875 8.89918 18.3588L7.65172 15.9867C6.49207 15.6612 5.43612 15.0417 4.58609 14.1884Z" fill="black"/>
<path d="M49.8066 28.6113C50.7625 30.4258 51.3514 32.4109 51.5397 34.4531C51.728 36.4953 51.512 38.5546 50.904 40.5133C50.2961 42.472 49.3081 44.2917 47.9965 45.8683C46.685 47.445 45.0756 48.7478 43.2603 49.7021L38.2468 52.3437L37.014 52.9921C35.8814 53.5881 34.627 53.9158 33.3476 53.9501C32.0682 53.9843 30.798 53.7241 29.6352 53.1895L10.0558 44.8247L11.8995 39.3548L23.5436 41.6041L17.5134 30.1455L7.80523 11.6989L12.5346 9.21082L22.2428 27.6628L24.5789 26.4341L20.2991 18.296L25.0258 15.8093L29.3055 23.9474L31.6416 22.7187L28.337 16.4377L33.0664 13.9495L36.3711 20.2305L38.7084 18.9912L36.4403 14.6686L41.1684 12.1873L43.4364 16.5097L49.8054 28.6153L49.8066 28.6113ZM4.58609 14.1884C3.60362 13.205 2.93448 11.9527 2.66315 10.5894C2.39182 9.22608 2.53045 7.81296 3.06155 6.52839C3.59265 5.24381 4.4924 4.14537 5.64724 3.37172C6.80208 2.59806 8.16024 2.18388 9.55027 2.18145C10.6767 2.18271 11.7864 2.45415 12.7862 2.97298C13.7861 3.49181 14.6469 4.24291 15.2964 5.16322C15.9459 6.08354 16.3652 7.14623 16.5191 8.2621C16.673 9.37798 16.5569 10.5145 16.1807 11.5763L17.4215 13.9215C18.2515 12.5302 18.6982 10.9438 18.7163 9.32384C18.7344 7.70384 18.3231 6.10794 17.5244 4.6984C16.7257 3.28887 15.568 2.11596 14.169 1.29894C12.77 0.481923 11.1796 0.0499265 9.55953 0.046875C7.18547 0.0472088 4.90411 0.968463 3.19553 2.61677C1.48696 4.26508 0.4844 6.5119 0.398844 8.88441C0.313289 11.2569 1.1514 13.5701 2.73682 15.3372C4.32223 17.1043 6.53131 18.1875 8.89918 18.3588L7.65172 15.9867C6.49207 15.6612 5.43612 15.0417 4.58609 14.1884Z" fill="url(#paint0_radial_444_19656)"/>
<defs>
<radialGradient id="paint0_radial_444_19656" cx="0" cy="0" r="1" gradientUnits="userSpaceOnUse" gradientTransform="translate(25.9992 27) rotate(89.747) scale(29.3689 27.9012)">
<stop stop-color="#C7D7FF"/>
<stop offset="1" stop-color="#788199"/>
</radialGradient>
</defs>
</svg>
