<svg width="51" height="47" viewBox="0 0 51 47" fill="none" xmlns="http://www.w3.org/2000/svg">
<path d="M32.375 46.4326H9.45833V41.8493H32.375V46.4326ZM48.4167 5.16659L37.5656 18.8135L37.0615 19.4322L24.1594 35.9093C23.7335 36.3351 23.228 36.6729 22.6716 36.9034C22.1152 37.1339 21.5189 37.2525 20.9167 37.2525C20.3144 37.2525 19.7181 37.1339 19.1617 36.9034C18.6053 36.6729 18.0998 36.3351 17.674 35.9093C17.2481 35.4835 16.9103 34.9779 16.6799 34.4215C16.4494 33.8651 16.3308 33.2688 16.3308 32.6666C16.3308 32.0644 16.4494 31.468 16.6799 30.9116C16.9103 30.3553 17.2481 29.8497 17.674 29.4239L48.4167 5.16659ZM4.06145 12.5778C0.750576 17.8794 -0.440044 24.2343 0.72708 30.3749H2.58333V28.0833C2.56054 23.5712 3.91135 19.1591 6.45625 15.4333L4.06145 12.5778ZM25.5 0.583252C21.9952 0.583049 18.5291 1.31636 15.3247 2.73602C12.1203 4.15568 9.24851 6.23027 6.89395 8.82638L9.51562 11.9499C12.6269 9.08969 16.6906 7.4887 20.9167 7.45825C25.1657 7.48743 29.2503 9.10426 32.3681 11.9912L40.5035 5.56992C36.1711 2.33297 30.9081 0.583731 25.5 0.583252ZM41.1521 21.6666L40.6181 22.3243L38.9498 24.4555C39.1459 25.6549 39.2463 26.868 39.25 28.0833V30.3749H50.2729C51.3602 24.6398 50.4008 18.7049 47.5619 13.6045L41.1521 21.6666Z" fill="black"/>
<path d="M32.375 46.4326H9.45833V41.8493H32.375V46.4326ZM48.4167 5.16659L37.5656 18.8135L37.0615 19.4322L24.1594 35.9093C23.7335 36.3351 23.228 36.6729 22.6716 36.9034C22.1152 37.1339 21.5189 37.2525 20.9167 37.2525C20.3144 37.2525 19.7181 37.1339 19.1617 36.9034C18.6053 36.6729 18.0998 36.3351 17.674 35.9093C17.2481 35.4835 16.9103 34.9779 16.6799 34.4215C16.4494 33.8651 16.3308 33.2688 16.3308 32.6666C16.3308 32.0644 16.4494 31.468 16.6799 30.9116C16.9103 30.3553 17.2481 29.8497 17.674 29.4239L48.4167 5.16659ZM4.06145 12.5778C0.750576 17.8794 -0.440044 24.2343 0.72708 30.3749H2.58333V28.0833C2.56054 23.5712 3.91135 19.1591 6.45625 15.4333L4.06145 12.5778ZM25.5 0.583252C21.9952 0.583049 18.5291 1.31636 15.3247 2.73602C12.1203 4.15568 9.24851 6.23027 6.89395 8.82638L9.51562 11.9499C12.6269 9.08969 16.6906 7.4887 20.9167 7.45825C25.1657 7.48743 29.2503 9.10426 32.3681 11.9912L40.5035 5.56992C36.1711 2.33297 30.9081 0.583731 25.5 0.583252ZM41.1521 21.6666L40.6181 22.3243L38.9498 24.4555C39.1459 25.6549 39.2463 26.868 39.25 28.0833V30.3749H50.2729C51.3602 24.6398 50.4008 18.7049 47.5619 13.6045L41.1521 21.6666Z" fill="url(#paint0_radial_444_19623)"/>
<defs>
<radialGradient id="paint0_radial_444_19623" cx="0" cy="0" r="1" gradientUnits="userSpaceOnUse" gradientTransform="translate(25.4997 23.5079) rotate(89.7072) scale(24.9795 27.4687)">
<stop stop-color="#C7D7FF"/>
<stop offset="1" stop-color="#788199"/>
</radialGradient>
</defs>
</svg>
