<svg width="183" height="293" viewBox="0 0 183 293" fill="none" xmlns="http://www.w3.org/2000/svg">
<g style="mix-blend-mode:lighten">
<path d="M46.279 7.49031C46.8345 5.60026 47.9874 3.94104 49.565 2.76114C51.1426 1.58124 53.0599 0.944161 55.0299 0.945314H127.955C129.398 0.94641 130.821 1.29036 132.106 1.94884C133.39 2.60732 134.5 3.5615 135.344 4.73284C136.188 5.90418 136.741 7.25918 136.959 8.68628C137.177 10.1134 137.052 11.5718 136.596 12.9414L104.145 110.332H173.533C175.24 110.331 176.913 110.809 178.361 111.712C179.81 112.616 180.976 113.907 181.726 115.441C182.477 116.974 182.782 118.687 182.606 120.385C182.431 122.083 181.782 123.698 180.734 125.045L53.1157 289.126C51.8083 290.815 49.9494 291.991 47.8633 292.449C45.7772 292.908 43.5964 292.619 41.7014 291.633C39.8065 290.648 38.3178 289.028 37.495 287.057C36.6723 285.086 36.5678 282.889 37.1998 280.849L70.0342 174.142H9.45198C8.03478 174.142 6.6369 173.813 5.36936 173.179C4.10182 172.545 2.99955 171.624 2.15008 170.49C1.3006 169.355 0.727332 168.039 0.47579 166.644C0.224248 165.249 0.301364 163.815 0.701016 162.455L46.279 7.49031Z" fill="url(#paint0_radial_444_83052)"/>
</g>
<defs>
<radialGradient id="paint0_radial_444_83052" cx="0" cy="0" r="1" gradientUnits="userSpaceOnUse" gradientTransform="translate(91.4928 146.803) rotate(89.8336) scale(158.931 99.332)">
<stop stop-color="#C7D7FF"/>
<stop offset="1" stop-color="#788199"/>
</radialGradient>
</defs>
</svg>
