<svg width="62" height="62" viewBox="0 0 62 62" fill="none" xmlns="http://www.w3.org/2000/svg">
<path d="M30.8335 46.3333C26.6571 46.3333 23.0835 44.9125 20.1127 42.0708C17.1418 39.2292 15.5488 35.7417 15.3335 31.6083L20.7585 33.2229C21.3182 35.5479 22.5238 37.4536 24.3752 38.9398C26.2265 40.4261 28.3793 41.1684 30.8335 41.1667C33.6752 41.1667 36.1078 40.1549 38.1314 38.1313C40.155 36.1076 41.1668 33.675 41.1668 30.8333C41.1668 28.3792 40.4245 26.2264 38.94 24.375C37.4554 22.5236 35.5498 21.3181 33.2231 20.7583L31.6085 15.3333C35.7418 15.5486 39.2293 17.1417 42.071 20.1125C44.9127 23.0833 46.3335 26.6569 46.3335 30.8333C46.3335 35.1389 44.8265 38.7986 41.8127 41.8125C38.7988 44.8264 35.139 46.3333 30.8335 46.3333ZM30.8335 56.6667C27.2599 56.6667 23.9016 55.9881 20.7585 54.631C17.6154 53.2739 14.8814 51.4337 12.5564 49.1104C10.2314 46.7871 8.39122 44.0531 7.03583 40.9083C5.68044 37.7636 5.00188 34.4052 5.00016 30.8333V29.6708C5.00016 29.2833 5.04322 28.8958 5.12933 28.5083L10.1668 30.0583V30.8333C10.1668 36.6028 12.1689 41.4896 16.1731 45.4938C20.1772 49.4979 25.064 51.5 30.8335 51.5C36.6029 51.5 41.4897 49.4979 45.4939 45.4938C49.4981 41.4896 51.5002 36.6028 51.5002 30.8333C51.5002 25.0639 49.4981 20.1771 45.4939 16.1729C41.4897 12.1688 36.6029 10.1667 30.8335 10.1667H30.0585L28.5085 5.12917C28.896 5.04306 29.2835 5 29.671 5H30.8335C34.4071 5 37.7654 5.67856 40.9085 7.03567C44.0515 8.39278 46.7856 10.233 49.1106 12.5563C51.4356 14.8795 53.2766 17.6136 54.6337 20.7583C55.9909 23.9031 56.6685 27.2614 56.6668 30.8333C56.6651 34.4052 55.9865 37.7636 54.6312 40.9083C53.2758 44.0531 51.4356 46.7871 49.1106 49.1104C46.7856 51.4337 44.0515 53.2747 40.9085 54.6336C37.7654 55.9924 34.4071 56.6701 30.8335 56.6667ZM27.0231 32.125L15.9793 21.0813L12.7502 30.8333L5.00016 5L30.8335 12.75L21.0814 15.9792L32.1252 27.0229L27.0231 32.125Z" fill="url(#paint0_radial_444_19613)"/>
<defs>
<radialGradient id="paint0_radial_444_19613" cx="0" cy="0" r="1" gradientUnits="userSpaceOnUse" gradientTransform="translate(30.8335 30.8333) rotate(89.7337) scale(28.1488 28.1484)">
<stop stop-color="#C7D7FF"/>
<stop offset="1" stop-color="#788199"/>
</radialGradient>
</defs>
</svg>
