<svg
    width="24"
    height="24"
    viewBox="0 0 24 24"
    fill="none"
    xmlns="http://www.w3.org/2000/svg"
  >
    <path
      d="M19.2 0.75C20.473 0.75 21.6939 1.26571 22.5941 2.18367C23.4943 3.10163 24 4.34666 24 5.64485V15.4346C24 16.7328 23.4943 17.9778 22.5941 18.8957C21.6939 19.8137 20.473 20.3294 19.2 20.3294H13.5312L7.8168 23.8256C7.64471 23.9309 7.44946 23.9905 7.24893 23.999C7.0484 24.0074 6.84899 23.9645 6.66895 23.874C6.48891 23.7835 6.334 23.6485 6.21839 23.4812C6.10278 23.3139 6.03017 23.1197 6.0072 22.9163L6 22.7768V20.3294H4.8C3.56851 20.3294 2.38413 19.8467 1.49183 18.9812C0.599526 18.1157 0.0675747 16.9336 0.00600014 15.6793L0 15.4346V5.64485C0 4.34666 0.505713 3.10163 1.40589 2.18367C2.30606 1.26571 3.52696 0.75 4.8 0.75H19.2ZM15.84 12.1134C15.6127 11.8862 15.3063 11.7604 14.9881 11.7637C14.6699 11.7669 14.366 11.8988 14.1432 12.1305C13.8639 12.4214 13.5304 12.6524 13.1624 12.8101C12.7944 12.9679 12.3992 13.0491 12 13.0491C11.6008 13.0491 11.2056 12.9679 10.8376 12.8101C10.4696 12.6524 10.1361 12.4214 9.8568 12.1305C9.63288 11.9042 9.3306 11.7768 9.01531 11.7759C8.70002 11.775 8.39705 11.9007 8.17191 12.1258C7.94677 12.3509 7.81755 12.6573 7.81217 12.9788C7.8068 13.3002 7.92571 13.6109 8.1432 13.8437C8.64597 14.3669 9.24606 14.7825 9.90831 15.0663C10.5706 15.35 11.2817 15.4962 12 15.4962C12.7183 15.4962 13.4294 15.35 14.0917 15.0663C14.7539 14.7825 15.354 14.3669 15.8568 13.8437C16.0796 13.612 16.2029 13.2995 16.1998 12.975C16.1966 12.6505 16.0672 12.3406 15.84 12.1134ZM9.012 6.86857H9C8.68174 6.86857 8.37652 6.99749 8.15147 7.22698C7.92643 7.45647 7.8 7.76773 7.8 8.09228C7.8 8.41683 7.92643 8.72808 8.15147 8.95757C8.37652 9.18706 8.68174 9.31599 9 9.31599H9.012C9.33026 9.31599 9.63548 9.18706 9.86053 8.95757C10.0856 8.72808 10.212 8.41683 10.212 8.09228C10.212 7.76773 10.0856 7.45647 9.86053 7.22698C9.63548 6.99749 9.33026 6.86857 9.012 6.86857ZM15.012 6.86857H15C14.6817 6.86857 14.3765 6.99749 14.1515 7.22698C13.9264 7.45647 13.8 7.76773 13.8 8.09228C13.8 8.41683 13.9264 8.72808 14.1515 8.95757C14.3765 9.18706 14.6817 9.31599 15 9.31599H15.012C15.3303 9.31599 15.6355 9.18706 15.8605 8.95757C16.0856 8.72808 16.212 8.41683 16.212 8.09228C16.212 7.76773 16.0856 7.45647 15.8605 7.22698C15.6355 6.99749 15.3303 6.86857 15.012 6.86857Z"
      fill="url(#paint0_linear_444_19739)"
    />
    <defs>
      <linearGradient
        id="paint0_linear_444_19739"
        x1="7.71429"
        y1="0.75"
        x2="14.2007"
        y2="37.7676"
        gradientUnits="userSpaceOnUse"
      >
        <stop stop-color="#C7D7FF" />
        <stop offset="1" stop-color="#788199" />
      </linearGradient>
    </defs>
  </svg>