<svg width="52" height="52" viewBox="0 0 52 52" fill="none" xmlns="http://www.w3.org/2000/svg">
<path d="M27.5036 0.246826C29.2271 2.73087 30.7976 5.31767 32.2064 7.99283C32.4137 7.96349 32.6228 7.94865 32.8322 7.94843C33.6773 7.94861 34.5053 8.18676 35.2213 8.63561C35.9374 9.08447 36.5125 9.72588 36.881 10.4864C38.8843 10.3073 40.8934 10.2012 42.9044 10.1684C44.0628 10.1508 45.2264 10.1572 46.3952 10.1876C41.9666 4.47863 35.1944 0.686626 27.5036 0.246826ZM23.8568 0.294826C23.7686 0.302026 23.6798 0.306826 23.5916 0.314626C21.5666 4.45823 19.9826 8.55263 18.8504 12.5936C19.336 12.8941 19.7599 13.2842 20.0996 13.7432C22.8291 12.9178 25.5987 12.2309 28.3976 11.6852C28.547 10.8178 28.9475 10.0132 29.5496 9.37103C27.9314 6.30263 26.0396 3.27623 23.8568 0.294826ZM19.9928 0.908026C13.7369 2.39801 8.26424 6.17318 4.6496 11.492C7.41895 12.1275 10.1607 12.8778 12.8678 13.7408C13.2325 13.2493 13.6936 12.8373 14.2229 12.5301C14.7523 12.2229 15.3387 12.0268 15.9464 11.954C16.9514 8.29223 18.3002 4.60703 19.9928 0.908026ZM44.6666 13.1588C42.1574 13.1426 39.6746 13.2452 37.2158 13.4588C36.9972 14.4076 36.4767 15.2598 35.7326 15.8876C36.56 18.1127 37.2644 20.3815 37.8428 22.6838C38.4306 22.7462 39.0004 22.9239 39.5196 23.2066C40.0388 23.4893 40.4972 23.8715 40.8686 24.3314C44.347 23.2901 47.8892 22.4754 51.473 21.8924C50.9901 18.8612 49.9664 15.9414 48.4508 13.2722C47.1828 13.2054 45.9214 13.168 44.6666 13.1588ZM3.0392 14.216C1.74067 16.744 0.871801 19.4704 0.468197 22.2836C4.2434 20.1164 8.0828 18.2252 11.9882 16.6208L11.987 16.6028C9.0878 15.6776 6.101 14.8898 3.0392 14.216ZM28.8956 14.6264C26.2257 15.1471 23.5838 15.8019 20.9798 16.5884C20.9778 16.6395 20.975 16.6905 20.9714 16.7414C25.6219 18.7119 30.0889 21.0899 34.3202 23.8478C34.5168 23.6673 34.729 23.5047 34.9544 23.3618C34.4052 21.188 33.737 19.0459 32.9528 16.9454L32.8322 16.9478C32.0286 16.9475 31.2397 16.732 30.5475 16.3236C29.8553 15.9153 29.2852 15.3291 28.8962 14.6258M13.1042 19.3904C8.729 21.194 4.43 23.3762 0.202397 25.9166L0.199997 26C0.199997 32.8196 2.8358 39.0068 7.1396 43.6142C9.59414 41.4184 12.1554 39.3448 14.8142 37.4012C13.6862 31.8218 13.5224 26.1182 14.2616 20.3342C13.8258 20.0869 13.4345 19.7685 13.1036 19.3922M19.7762 19.4876C19.0849 20.2301 18.1631 20.7173 17.1602 20.87C16.529 25.847 16.619 30.7376 17.465 35.5364C22.3598 32.2154 27.4922 29.423 32.8682 27.188V27.1598C32.8687 26.9409 32.8851 26.7223 32.9174 26.5058C28.7585 23.7735 24.36 21.4244 19.7762 19.4876ZM51.7718 24.884C48.426 25.4376 45.1183 26.2007 41.8682 27.1688C41.8669 27.8212 41.7238 28.4655 41.4488 29.057C44.3053 31.3913 47.005 33.9111 49.5302 36.6002C51.0307 33.268 51.8045 29.6545 51.8 26C51.8 25.6256 51.788 25.2542 51.7718 24.884ZM33.881 30.0008C28.3754 32.2994 23.1344 35.2106 18.1376 38.7044C19.2296 43.1072 20.9678 47.4302 23.375 51.6686C24.2382 51.7562 25.1132 51.8 26 51.8C29.4992 51.8 32.8322 51.104 35.8718 49.8476C36.8876 43.5992 37.0874 37.505 36.431 31.5596C35.4282 31.3457 34.5286 30.7958 33.881 30.0008ZM39.3896 31.2368C40.0076 36.7868 39.9146 42.4508 39.1436 48.212C42.7885 46.0548 45.8477 43.0354 48.0524 39.419C45.368 36.4846 42.4727 33.7503 39.3896 31.238M15.5636 40.571C13.4126 42.1918 11.329 43.9003 9.3182 45.692C12.3008 48.225 15.8229 50.0429 19.6154 51.0068C17.864 47.5892 16.5182 44.1068 15.5636 40.571Z" fill="black"/>
<path d="M27.5036 0.246826C29.2271 2.73087 30.7976 5.31767 32.2064 7.99283C32.4137 7.96349 32.6228 7.94865 32.8322 7.94843C33.6773 7.94861 34.5053 8.18676 35.2213 8.63561C35.9374 9.08447 36.5125 9.72588 36.881 10.4864C38.8843 10.3073 40.8934 10.2012 42.9044 10.1684C44.0628 10.1508 45.2264 10.1572 46.3952 10.1876C41.9666 4.47863 35.1944 0.686626 27.5036 0.246826ZM23.8568 0.294826C23.7686 0.302026 23.6798 0.306826 23.5916 0.314626C21.5666 4.45823 19.9826 8.55263 18.8504 12.5936C19.336 12.8941 19.7599 13.2842 20.0996 13.7432C22.8291 12.9178 25.5987 12.2309 28.3976 11.6852C28.547 10.8178 28.9475 10.0132 29.5496 9.37103C27.9314 6.30263 26.0396 3.27623 23.8568 0.294826ZM19.9928 0.908026C13.7369 2.39801 8.26424 6.17318 4.6496 11.492C7.41895 12.1275 10.1607 12.8778 12.8678 13.7408C13.2325 13.2493 13.6936 12.8373 14.2229 12.5301C14.7523 12.2229 15.3387 12.0268 15.9464 11.954C16.9514 8.29223 18.3002 4.60703 19.9928 0.908026ZM44.6666 13.1588C42.1574 13.1426 39.6746 13.2452 37.2158 13.4588C36.9972 14.4076 36.4767 15.2598 35.7326 15.8876C36.56 18.1127 37.2644 20.3815 37.8428 22.6838C38.4306 22.7462 39.0004 22.9239 39.5196 23.2066C40.0388 23.4893 40.4972 23.8715 40.8686 24.3314C44.347 23.2901 47.8892 22.4754 51.473 21.8924C50.9901 18.8612 49.9664 15.9414 48.4508 13.2722C47.1828 13.2054 45.9214 13.168 44.6666 13.1588ZM3.0392 14.216C1.74067 16.744 0.871801 19.4704 0.468197 22.2836C4.2434 20.1164 8.0828 18.2252 11.9882 16.6208L11.987 16.6028C9.0878 15.6776 6.101 14.8898 3.0392 14.216ZM28.8956 14.6264C26.2257 15.1471 23.5838 15.8019 20.9798 16.5884C20.9778 16.6395 20.975 16.6905 20.9714 16.7414C25.6219 18.7119 30.0889 21.0899 34.3202 23.8478C34.5168 23.6673 34.729 23.5047 34.9544 23.3618C34.4052 21.188 33.737 19.0459 32.9528 16.9454L32.8322 16.9478C32.0286 16.9475 31.2397 16.732 30.5475 16.3236C29.8553 15.9153 29.2852 15.3291 28.8962 14.6258M13.1042 19.3904C8.729 21.194 4.43 23.3762 0.202397 25.9166L0.199997 26C0.199997 32.8196 2.8358 39.0068 7.1396 43.6142C9.59414 41.4184 12.1554 39.3448 14.8142 37.4012C13.6862 31.8218 13.5224 26.1182 14.2616 20.3342C13.8258 20.0869 13.4345 19.7685 13.1036 19.3922M19.7762 19.4876C19.0849 20.2301 18.1631 20.7173 17.1602 20.87C16.529 25.847 16.619 30.7376 17.465 35.5364C22.3598 32.2154 27.4922 29.423 32.8682 27.188V27.1598C32.8687 26.9409 32.8851 26.7223 32.9174 26.5058C28.7585 23.7735 24.36 21.4244 19.7762 19.4876ZM51.7718 24.884C48.426 25.4376 45.1183 26.2007 41.8682 27.1688C41.8669 27.8212 41.7238 28.4655 41.4488 29.057C44.3053 31.3913 47.005 33.9111 49.5302 36.6002C51.0307 33.268 51.8045 29.6545 51.8 26C51.8 25.6256 51.788 25.2542 51.7718 24.884ZM33.881 30.0008C28.3754 32.2994 23.1344 35.2106 18.1376 38.7044C19.2296 43.1072 20.9678 47.4302 23.375 51.6686C24.2382 51.7562 25.1132 51.8 26 51.8C29.4992 51.8 32.8322 51.104 35.8718 49.8476C36.8876 43.5992 37.0874 37.505 36.431 31.5596C35.4282 31.3457 34.5286 30.7958 33.881 30.0008ZM39.3896 31.2368C40.0076 36.7868 39.9146 42.4508 39.1436 48.212C42.7885 46.0548 45.8477 43.0354 48.0524 39.419C45.368 36.4846 42.4727 33.7503 39.3896 31.238M15.5636 40.571C13.4126 42.1918 11.329 43.9003 9.3182 45.692C12.3008 48.225 15.8229 50.0429 19.6154 51.0068C17.864 47.5892 16.5182 44.1068 15.5636 40.571Z" fill="url(#paint0_radial_444_19647)"/>
<defs>
<radialGradient id="paint0_radial_444_19647" cx="0" cy="0" r="1" gradientUnits="userSpaceOnUse" gradientTransform="translate(26 26.0234) rotate(89.7335) scale(28.087 28.1121)">
<stop stop-color="#C7D7FF"/>
<stop offset="1" stop-color="#788199"/>
</radialGradient>
</defs>
</svg>
