<svg width="18" height="19" viewBox="0 0 18 19" fill="none" xmlns="http://www.w3.org/2000/svg">
<path d="M17 13C15.8 13 14.5 12.8 13.4 12.4H13.1C12.8 12.4 12.6 12.5 12.4 12.7L10.2 14.9C7.4 13.4 5 11.1 3.6 8.3L5.8 6.1C6.1 5.8 6.2 5.4 6 5.1C5.7 4 5.5 2.7 5.5 1.5C5.5 1 5 0.5 4.5 0.5H1C0.5 0.5 0 1 0 1.5C0 10.9 7.6 18.5 17 18.5C17.5 18.5 18 18 18 17.5V14C18 13.5 17.5 13 17 13ZM2 2.5H3.5C3.6 3.4 3.8 4.3 4 5.1L2.8 6.3C2.4 5.1 2.1 3.8 2 2.5ZM16 16.5C14.7 16.4 13.4 16.1 12.2 15.7L13.4 14.5C14.2 14.7 15.1 14.9 16 14.9V16.5Z" fill="#5C73AE"/>
</svg>
