<svg width="85" height="85" viewBox="0 0 85 85" fill="none" xmlns="http://www.w3.org/2000/svg">
<path d="M34.0028 0.37974C36.0243 0.141499 38.0612 0.675521 39.7059 1.87492C41.3505 3.07432 42.4815 4.8506 42.8725 6.84824L42.9787 7.55799L43 7.99999V37.75C43.0001 38.791 43.3823 39.7957 44.074 40.5736C44.7658 41.3515 45.7189 41.8484 46.7528 41.9702L47.25 42H76.15C78.4043 42 80.5664 42.8955 82.1604 44.4896C83.7545 46.0836 84.65 48.2456 84.65 50.5C84.6498 50.8233 84.6127 51.1456 84.5395 51.4605C82.8387 58.7988 79.218 65.5532 74.0483 71.032C68.8785 76.5108 62.3455 80.5172 55.1182 82.6407C47.8909 84.7643 40.229 84.9289 32.9172 83.1175C25.6054 81.3061 18.9064 77.5839 13.5063 72.332C8.10611 67.0802 4.19883 60.4874 2.18457 53.2289C0.170315 45.9704 0.121451 38.3069 2.04299 31.0233C3.96452 23.7396 7.78741 17.0976 13.1202 11.7773C18.4529 6.45704 25.1039 2.64972 32.392 0.74524L33.5395 0.46049L34.0028 0.37974Z" fill="black"/>
<path d="M34.0028 0.37974C36.0243 0.141499 38.0612 0.675521 39.7059 1.87492C41.3505 3.07432 42.4815 4.8506 42.8725 6.84824L42.9787 7.55799L43 7.99999V37.75C43.0001 38.791 43.3823 39.7957 44.074 40.5736C44.7658 41.3515 45.7189 41.8484 46.7528 41.9702L47.25 42H76.15C78.4043 42 80.5664 42.8955 82.1604 44.4896C83.7545 46.0836 84.65 48.2456 84.65 50.5C84.6498 50.8233 84.6127 51.1456 84.5395 51.4605C82.8387 58.7988 79.218 65.5532 74.0483 71.032C68.8785 76.5108 62.3455 80.5172 55.1182 82.6407C47.8909 84.7643 40.229 84.9289 32.9172 83.1175C25.6054 81.3061 18.9064 77.5839 13.5063 72.332C8.10611 67.0802 4.19883 60.4874 2.18457 53.2289C0.170315 45.9704 0.121451 38.3069 2.04299 31.0233C3.96452 23.7396 7.78741 17.0976 13.1202 11.7773C18.4529 6.45704 25.1039 2.64972 32.392 0.74524L33.5395 0.46049L34.0028 0.37974Z" fill="url(#paint0_linear_14513_567)"/>
<path d="M51.5 5.87507V29.2501C51.5 30.3772 51.9478 31.4582 52.7448 32.2553C53.5418 33.0523 54.6228 33.5001 55.75 33.5001H79.125C79.8043 33.4999 80.4737 33.3369 81.077 33.0247C81.6803 32.7125 82.2 32.2602 82.5925 31.7058C82.985 31.1513 83.2389 30.5109 83.3329 29.8381C83.4269 29.1654 83.3583 28.4799 83.1328 27.8391C81.022 21.8437 77.5933 16.3982 73.0993 11.9034C68.6052 7.40864 63.1602 3.9791 57.1653 1.86732C56.5242 1.64094 55.8383 1.57163 55.1649 1.66522C54.4916 1.75881 53.8505 2.01256 53.2955 2.40517C52.7405 2.79778 52.2878 3.3178 51.9754 3.92157C51.663 4.52534 51.5 5.19525 51.5 5.87507Z" fill="black"/>
<path d="M51.5 5.87507V29.2501C51.5 30.3772 51.9478 31.4582 52.7448 32.2553C53.5418 33.0523 54.6228 33.5001 55.75 33.5001H79.125C79.8043 33.4999 80.4737 33.3369 81.077 33.0247C81.6803 32.7125 82.2 32.2602 82.5925 31.7058C82.985 31.1513 83.2389 30.5109 83.3329 29.8381C83.4269 29.1654 83.3583 28.4799 83.1328 27.8391C81.022 21.8437 77.5933 16.3982 73.0993 11.9034C68.6052 7.40864 63.1602 3.9791 57.1653 1.86732C56.5242 1.64094 55.8383 1.57163 55.1649 1.66522C54.4916 1.75881 53.8505 2.01256 53.2955 2.40517C52.7405 2.79778 52.2878 3.3178 51.9754 3.92157C51.663 4.52534 51.5 5.19525 51.5 5.87507Z" fill="url(#paint1_linear_14513_567)"/>
<defs>
<linearGradient id="paint0_linear_14513_567" x1="42.4308" y1="-3.4416" x2="42.5971" y2="88.1308" gradientUnits="userSpaceOnUse">
<stop stop-color="#C7D7FF"/>
<stop offset="1" stop-color="#788199"/>
</linearGradient>
<linearGradient id="paint1_linear_14513_567" x1="99.7953" y1="-1.46582" x2="67.4369" y2="33.5001" gradientUnits="userSpaceOnUse">
<stop stop-color="#5C73AE" stop-opacity="0"/>
<stop offset="1" stop-color="#5C73AE"/>
</linearGradient>
</defs>
</svg>
