<svg width="51" height="48" viewBox="0 0 51 48" fill="none" xmlns="http://www.w3.org/2000/svg">
<g filter="url(#filter0_d_14513_7584)">
<path d="M27.5004 42.5533C27.9974 42.5533 28.4552 42.4995 28.9709 42.4634L30.0789 44.4456C30.2883 44.8424 30.7086 45.0585 31.2235 44.9862C31.7009 44.8962 32.0447 44.5717 32.1018 44.085L32.4456 41.9044C33.3816 41.6706 34.3169 41.3277 35.2334 40.9494L36.9524 42.4095C37.3149 42.734 37.7728 42.8055 38.2502 42.5533C38.6706 42.3373 38.8425 41.9044 38.7472 41.4361L38.2698 39.2739C39.079 38.7407 39.8391 38.144 40.5419 37.49L42.6805 38.3358C43.1579 38.5165 43.597 38.4265 43.9595 38.0121C44.2846 37.6876 44.3221 37.2193 44.0548 36.8226L42.8141 34.9487C43.3868 34.1913 43.8455 33.3801 44.2846 32.5151L46.6146 32.6235C47.1099 32.6412 47.5303 32.389 47.7022 31.9392C47.8545 31.4878 47.7022 31.0557 47.3014 30.7673L45.4871 29.3979C45.7355 28.5328 45.927 27.5955 46.0028 26.6221L48.2179 25.9739C48.6953 25.8116 49 25.4687 49 24.982C49 24.5137 48.6953 24.1715 48.2179 24.0093L46.002 23.3426C45.9262 22.3692 45.7355 21.468 45.4871 20.5853L47.3006 19.1974C47.7022 18.9275 47.8545 18.513 47.7022 18.0625C47.5303 17.6119 47.1099 17.3589 46.6138 17.3773L44.2838 17.4673C43.8455 16.6023 43.3876 15.7911 42.8141 15.0344L44.0557 13.1606C44.3221 12.7815 44.2838 12.3132 43.9595 11.9888C43.597 11.5743 43.1579 11.4659 42.6805 11.6643L40.5419 12.4755C39.8286 11.8377 39.0691 11.2475 38.2689 10.7093L38.7472 8.56476C38.8425 8.07803 38.6706 7.6459 38.2502 7.42906C37.7728 7.19531 37.3149 7.23145 36.9524 7.5913L35.2334 9.01534C34.3275 8.64419 33.3961 8.33105 32.4456 8.07803L32.1018 5.89737C32.0447 5.42833 31.7009 5.08693 31.2235 5.01465C30.7078 4.94237 30.2883 5.14076 30.0781 5.53752L28.9701 7.51979C28.4552 7.48365 27.9966 7.44752 27.5004 7.44752C26.9847 7.44752 26.5269 7.48365 25.9916 7.51979L24.904 5.53752C24.6938 5.14076 24.2734 4.94237 23.739 5.01465C23.2616 5.08693 22.9365 5.4291 22.8608 5.89737L22.5357 8.06035C21.5855 8.32126 20.6542 8.64027 19.7478 9.01534L18.0297 7.5913C17.6476 7.23145 17.1897 7.19531 16.7311 7.42983C16.3115 7.64513 16.1396 8.07803 16.2341 8.56476L16.7123 10.71C15.9023 11.2431 15.1362 11.8332 14.4206 12.4755L12.3016 11.6643C11.8242 11.4659 11.3655 11.5743 11.003 11.9888C10.8547 12.1443 10.765 12.3416 10.7478 12.5502C10.7305 12.7587 10.7867 12.9668 10.9077 13.1421L12.168 15.0352C11.5953 15.7918 11.1366 16.6038 10.6975 17.4681L8.34874 17.3781C7.85178 17.3604 7.43222 17.6126 7.27987 18.0625C7.12671 18.5138 7.26032 18.9283 7.66115 19.1982L9.49419 20.5861C9.24653 21.4688 9.03634 22.3699 8.97931 23.3434L6.76336 24.0101C6.26803 24.1538 6 24.4968 6 24.9835C6 25.4695 6.26803 25.8124 6.76418 25.9746L8.97931 26.6413C9.03634 27.5963 9.24653 28.5328 9.49501 29.3986L7.66196 30.7673C7.26032 31.0557 7.12671 31.4886 7.27906 31.9384C7.43222 32.389 7.8526 32.6412 8.34874 32.6235L10.6975 32.5158C11.1374 33.3801 11.5953 34.1921 12.1484 34.9479L10.9264 36.8226C10.6405 37.2193 10.6787 37.6876 11.003 38.0121C11.3655 38.4265 11.8242 38.5165 12.3016 38.3366L14.4206 37.4892C15.1278 38.1559 15.9107 38.7502 16.7123 39.2731L16.2349 41.4361C16.1396 41.9051 16.3115 42.3373 16.7319 42.5533C17.2085 42.8055 17.6671 42.7333 18.0297 42.4095L19.7291 40.9494C20.6456 41.3277 21.5809 41.6706 22.5357 41.9044L22.8608 44.085C22.9365 44.5717 23.2616 44.8962 23.739 44.9862C24.2734 45.0585 24.6938 44.8424 24.904 44.4456L25.9916 42.4634C26.5073 42.4995 26.9855 42.5533 27.5004 42.5533ZM32.2932 23.847C31.3954 21.5764 29.639 20.3331 27.4434 20.3331C27.1183 20.3331 26.737 20.3692 26.126 20.4946L20.6456 11.6643C22.6889 10.7093 25.0181 10.1864 27.5004 10.1864C35.8257 10.1864 42.3554 16.1517 42.9477 23.847H32.2932ZM11.9961 25.0004C11.9961 19.9901 14.4972 15.575 18.45 12.9084L23.9679 21.7925C22.9365 22.8021 22.4599 23.9009 22.4599 25.0727C22.4599 26.2076 22.9178 27.2534 23.9679 28.2983L18.3164 37.0209C14.4589 34.3351 11.9961 29.9746 11.9961 25.0004ZM25.1517 25.0542C25.1517 23.8294 26.2596 22.8736 27.4817 22.8736C28.7795 22.8736 29.8492 23.8294 29.8492 25.0542C29.8492 26.2614 28.7795 27.2534 27.4817 27.2534C26.2596 27.2534 25.1517 26.2614 25.1517 25.0542ZM27.5004 39.8144C24.961 39.8144 22.5935 39.2554 20.512 38.2827L26.1252 29.6139C26.7175 29.7585 27.1191 29.7939 27.4434 29.7939C29.6577 29.7939 31.415 28.5144 32.2932 26.1899H42.9469C42.3359 33.8484 35.8061 39.8144 27.5004 39.8144Z" fill="url(#paint0_radial_14513_7584)"/>
</g>
<defs>
<filter id="filter0_d_14513_7584" x="0" y="0" width="51" height="48" filterUnits="userSpaceOnUse" color-interpolation-filters="sRGB">
<feFlood flood-opacity="0" result="BackgroundImageFix"/>
<feColorMatrix in="SourceAlpha" type="matrix" values="0 0 0 0 0 0 0 0 0 0 0 0 0 0 0 0 0 0 127 0" result="hardAlpha"/>
<feOffset dx="-2" dy="-1"/>
<feGaussianBlur stdDeviation="2"/>
<feComposite in2="hardAlpha" operator="out"/>
<feColorMatrix type="matrix" values="0 0 0 0 0 0 0 0 0 0 0 0 0 0 0 0 0 0 0.25 0"/>
<feBlend mode="normal" in2="BackgroundImageFix" result="effect1_dropShadow_14513_7584"/>
<feBlend mode="normal" in="SourceGraphic" in2="effect1_dropShadow_14513_7584" result="shape"/>
</filter>
<radialGradient id="paint0_radial_14513_7584" cx="0" cy="0" r="1" gradientUnits="userSpaceOnUse" gradientTransform="translate(27.5 25) rotate(89.7138) scale(21.7927 23.4267)">
<stop stop-color="#C7D7FF"/>
<stop offset="1" stop-color="#788199"/>
</radialGradient>
</defs>
</svg>
