<svg width="69" height="68" viewBox="0 0 69 68" fill="none" xmlns="http://www.w3.org/2000/svg">
<path d="M34.5007 63.8407C35.2981 63.8407 36.0328 63.7492 36.8603 63.6877L38.6382 67.0576C38.9742 67.7321 39.6488 68.0994 40.475 67.9765C41.241 67.8236 41.7927 67.272 41.8842 66.4445L42.4359 62.7374C43.938 62.34 45.4387 61.757 46.9094 61.1139L49.6678 63.5962C50.2496 64.1478 50.9843 64.2694 51.7503 63.8407C52.4249 63.4733 52.7007 62.7374 52.5478 61.9413L51.7817 58.2656C53.0803 57.3592 54.3 56.3448 55.4277 55.233L58.8594 56.6709C59.6254 56.978 60.3301 56.8251 60.9118 56.1205C61.4334 55.5689 61.4935 54.7729 61.0648 54.0984L59.0738 50.9128C59.9928 49.6252 60.7288 48.2462 61.4334 46.7756L65.1723 46.9599C65.9671 46.99 66.6417 46.5613 66.9175 45.7966C67.162 45.0293 66.9175 44.2946 66.2743 43.8044L63.363 41.4764C63.7617 40.0058 64.0689 38.4124 64.1905 36.7575L67.745 35.6556C68.5111 35.3798 69 34.7968 69 33.9693C69 33.1733 68.5111 32.5916 67.745 32.3158L64.1892 31.1825C64.0676 29.5276 63.7617 27.9956 63.363 26.495L66.273 24.1356C66.9175 23.6767 67.162 22.9722 66.9175 22.2062C66.6417 21.4402 65.9671 21.0101 65.171 21.0415L61.4321 21.1944C60.7288 19.7239 59.9941 18.3448 59.0738 17.0586L61.0661 13.873C61.4935 13.2286 61.4321 12.4325 60.9118 11.8809C60.3301 11.1763 59.6254 10.992 58.8594 11.3293L55.4277 12.7083C54.2831 11.6241 53.0643 10.6208 51.7804 9.70577L52.5478 6.06009C52.7007 5.23265 52.4249 4.49803 51.7503 4.12941C50.9843 3.73203 50.2496 3.79346 49.6678 4.40522L46.9094 6.82609C45.4557 6.19513 43.9612 5.66278 42.4359 5.23265L41.8842 1.52553C41.7927 0.728164 41.241 0.147784 40.475 0.0249102C39.6474 -0.0979632 38.9742 0.239285 38.6369 0.913782L36.859 4.28365C36.0328 4.22221 35.2968 4.16078 34.5007 4.16078C33.6731 4.16078 32.9384 4.22221 32.0796 4.28365L30.3343 0.913782C29.997 0.239285 29.3225 -0.0979632 28.4649 0.0249102C27.6988 0.147784 27.1772 0.729472 27.0556 1.52553L26.534 5.20259C25.0092 5.64615 23.5149 6.18846 22.0605 6.82609L19.3034 4.40522C18.6903 3.79346 17.9556 3.73203 17.2196 4.13071C16.5464 4.49672 16.2705 5.23265 16.4222 6.06009L17.1895 9.70708C15.8897 10.6132 14.6604 11.6165 13.5121 12.7083L10.1119 11.3293C9.34581 10.992 8.6098 11.1763 8.02806 11.8809C7.79013 12.1452 7.64616 12.4807 7.6185 12.8353C7.59085 13.1898 7.68105 13.5436 7.87511 13.8416L9.89748 17.0599C8.97846 18.3461 8.24245 19.7265 7.53783 21.1957L3.76891 21.0428C2.97147 21.0127 2.29821 21.4415 2.05375 22.2062C1.80798 22.9735 2.02238 23.678 2.66556 24.1369L5.60696 26.4963C5.20954 27.9969 4.87226 29.5289 4.78075 31.1838L1.22493 32.3171C0.430098 32.5615 0 33.1445 0 33.972C0 34.7981 0.430098 35.3811 1.22624 35.6569L4.78075 36.7902C4.87226 38.4137 5.20955 40.0058 5.60827 41.4777L2.66687 43.8044C2.02238 44.2946 1.80798 45.0306 2.05244 45.7953C2.29821 46.5613 2.97277 46.99 3.76891 46.9599L7.53783 46.7769C8.24376 48.2462 8.97846 49.6266 9.86611 50.9115L7.90517 54.0984C7.44632 54.7729 7.50776 55.5689 8.02806 56.1205C8.6098 56.8251 9.34581 56.9781 10.1119 56.6722L13.5121 55.2317C14.6469 56.365 15.9032 57.3754 17.1895 58.2643L16.4235 61.9413C16.2705 62.7387 16.5464 63.4733 17.2209 63.8407C17.9857 64.2694 18.7217 64.1465 19.3034 63.5962L22.0304 61.1139C23.5011 61.757 25.0019 62.34 26.534 62.7374L27.0556 66.4445C27.1772 67.272 27.6988 67.8236 28.4649 67.9765C29.3225 68.0994 29.997 67.7321 30.3343 67.0576L32.0796 63.6877C32.9071 63.7492 33.6744 63.8407 34.5007 63.8407ZM42.1914 32.04C40.7508 28.1799 37.9323 26.0662 34.4091 26.0662C33.8875 26.0662 33.2757 26.1277 32.2953 26.3407L23.5011 11.3293C26.7798 9.70577 30.5173 8.8169 34.5007 8.8169C47.8598 8.8169 58.3378 18.9579 59.2882 32.04H42.1914ZM9.62164 34.0007C9.62164 25.4832 13.635 17.9775 19.978 13.4443L28.8323 28.5472C27.1772 30.2635 26.4125 32.1315 26.4125 34.1236C26.4125 36.053 27.1472 37.8307 28.8323 39.6071L19.7636 54.4356C13.5736 49.8697 9.62164 42.4568 9.62164 34.0007ZM30.7317 34.0922C30.7317 32.0099 32.5097 30.3851 34.4706 30.3851C36.5531 30.3851 38.2696 32.0099 38.2696 34.0922C38.2696 36.1445 36.5531 37.8307 34.4706 37.8307C32.5097 37.8307 30.7317 36.1445 30.7317 34.0922ZM34.5007 59.1845C30.4258 59.1845 26.6269 58.2342 23.2867 56.5807L32.294 41.8437C33.2444 42.0894 33.8888 42.1496 34.4091 42.1496C37.9624 42.1496 40.7822 39.9745 42.1914 36.0229H59.2868C58.3064 49.0423 47.8285 59.1845 34.5007 59.1845Z" fill="url(#paint0_radial_14513_7583)"/>
<defs>
<radialGradient id="paint0_radial_14513_7583" cx="0" cy="0" r="1" gradientUnits="userSpaceOnUse" gradientTransform="translate(34.5 34) rotate(89.7298) scale(37.0475 37.5918)">
<stop stop-color="#C7D7FF"/>
<stop offset="1" stop-color="#788199"/>
</radialGradient>
</defs>
</svg>
